<?xml version="1.0" encoding="UTF-8" standalone="no"?> <svg id="Layer_1" data-name="Layer 1" xmlns="http://www.w3.org/2000/svg" viewBox="0 0 128 128"><defs><style>.cls-1{fill:#2e79bd;}.cls-2{fill:#2d3e50;}</style></defs><title>b</title><path class="cls-1" d="M50.06863,41.87667h3.92893a.72805.72805,0,0,1,.72805.72805V54.99818a.7281.7281,0,0,1-.7281.7281H50.06868a.72805.72805,0,0,1-.72805-.72805V42.60468A.728.728,0,0,1,50.06863,41.87667Z"/><path class="cls-1" d="M76.14456,37.81385H68.8567l.01774-.05873.30447-.97891.29625-.95157.88606-2.84936.43144-1.38984A2.1554,2.1554,0,0,0,70.85,31.367v-.00274a2.50705,2.50705,0,0,0,.06142-.55838,2.55592,2.55592,0,0,0-.04095-.4574,2.62417,2.62417,0,0,0-4.90133-.77547L58.87789,40.71367a7.06012,7.06012,0,0,1-2.40018,2.38927l-.00409.00135a.96376.96376,0,0,0-.49152.83555V54.76241a.95251.95251,0,0,0,.65837.9073q.0326.01051.06614.01872c.06555.016,3.37514.62779,3.37514.62779l2.00977.22836a18.75981,18.75981,0,0,0,2.11771.11993H73.0073a2.84614,2.84614,0,0,0,2.7869-2.26853L78.65937,40.5717A2.74749,2.74749,0,0,0,76.14456,37.81385Z"/><path class="cls-1" d="M84.03768,83.30348a11.03151,11.03151,0,0,1-9.70537,3.37612l-5.87719-.87506-5.60739,1.95423A11.02025,11.02025,0,0,1,52.68294,86.2421l-4.798-3.50741-5.87715-.875A10.74762,10.74762,0,0,1,38.041,80.45965V125.698l24.47125-16.43575a2.66442,2.66442,0,0,1,2.97508,0L89.95865,125.698V78.31585l-1.8594.649Z"/><path class="cls-2" d="M102.76,31.69837,98.01838,26.0433,96.448,18.83253a5.22467,5.22467,0,0,0-3.11993-3.721l-6.82651-2.80374L81.76,6.65263a5.22449,5.22449,0,0,0-4.4918-1.84485l-7.34753.68975L63.09418,2.69375a5.22435,5.22435,0,0,0-4.83461.45389L52.07418,7.173l-7.34753.6898a5.22459,5.22459,0,0,0-4.07,2.64865l-3.60619,6.43876-6.18534,4.02533a5.22445,5.22445,0,0,0-2.37288,4.23663l-.20088,7.37712L24.68519,39.028a5.22446,5.22446,0,0,0-.13219,4.8541l3.25045,6.6255-.20088,7.37708a5.22452,5.22452,0,0,0,2.13877,4.35957l5.95711,4.356,3.2504,6.6255A5.22465,5.22465,0,0,0,42.86868,76.092l7.29909,1.08869,5.95711,4.356a5.22425,5.22425,0,0,0,4.80278.71629l6.96894-2.42806,7.29913,1.0886a5.22443,5.22443,0,0,0,4.58555-1.59772l5.04228-5.38859,6.969-2.42815a5.22455,5.22455,0,0,0,3.3178-3.54567l1.96052-7.11468L102.11318,55.45a5.22461,5.22461,0,0,0,1.29-4.68141l-1.57042-7.21086,1.96052-7.11464A5.22455,5.22455,0,0,0,102.76,31.69837ZM64,66.33724A23.91431,23.91431,0,1,1,87.9143,42.42293,23.91431,23.91431,0,0,1,64,66.33724Z"/></svg>